<?xml version="1.0" encoding="UTF-8"?>
<svg id="Layer_2" data-name="Layer 2" xmlns="http://www.w3.org/2000/svg" viewBox="0 0 172.76 112.99">
  <defs>
    <style>
      .cls-1 {
        fill: #fff;
      }
    </style>
  </defs>
  <g id="Layer_1-2" data-name="Layer 1">
    <path class="cls-1" d="M154.47,37.51c0,35.68-34.58,66.8-77.24,66.8S0,73.2,0,37.51c0,0,0-.01,0-.02,0-.87.6-1.57,1.33-1.57h151.81c.73,0,1.33.7,1.33,1.57,0,0,0,.01,0,.02Z"/>
    <path class="cls-1" d="M92.35,112.99l-30.23-.04c-.67,0-1.12-.77-.88-1.48l1.15-8.69c.14-.41.49-.69.88-.69l27.95.03c.39,0,.74.27.88.69l1.14,8.7c.24.71-.21,1.48-.88,1.48Z"/>
    <path class="cls-1" d="M164.05,15.08l-55.43,25.4c.97,1.15,1.95,2.3,2.92,3.45,2.41-.63,4.81-1.26,7.22-1.89,13.58-5.76,27.73-9.77,41.25-15.77,14.88-6.61,17.4-16.78,4.04-11.2ZM152.63,3.42c-15.08,12.18-30.2,24.83-45.28,36.57l4.11,3.5,43.56-31.71c10.74-9.85,7.93-15.97-2.39-8.36Z"/>
  </g>
</svg>