<?xml version="1.0" encoding="UTF-8"?>
<svg id="Layer_2" data-name="Layer 2" xmlns="http://www.w3.org/2000/svg" viewBox="0 0 172.76 112.99">
  <defs>
    <style>
      .cls-1 {
        fill: #fff;
      }
    </style>
  </defs>
  <g id="Layer_1-2" data-name="Layer 1">
    <path class="cls-1" d="M81.96,60.54c-.84-1.84-2.17-2.76-4-2.76h-2.26v23.04h2.16c1.94,0,3.32-.87,4.14-2.6.81-1.73,1.21-4.69,1.21-8.87s-.41-6.97-1.25-8.81ZM81.96,60.54c-.84-1.84-2.17-2.76-4-2.76h-2.26v23.04h2.16c1.94,0,3.32-.87,4.14-2.6.81-1.73,1.21-4.69,1.21-8.87s-.41-6.97-1.25-8.81ZM81.96,60.54c-.84-1.84-2.17-2.76-4-2.76h-2.26v23.04h2.16c1.94,0,3.32-.87,4.14-2.6.81-1.73,1.21-4.69,1.21-8.87s-.41-6.97-1.25-8.81ZM81.96,60.54c-.84-1.84-2.17-2.76-4-2.76h-2.26v23.04h2.16c1.94,0,3.32-.87,4.14-2.6.81-1.73,1.21-4.69,1.21-8.87s-.41-6.97-1.25-8.81ZM153.14,35.93H1.33c-.73,0-1.33.7-1.33,1.57h0c0,35.7,34.58,66.81,77.23,66.81s77.24-31.11,77.24-66.8h0c0-.88-.6-1.58-1.33-1.58ZM31.22,51.22c-.5.48-1.21.72-2.15.72h-3.69v14c0,1.09-.28,1.93-.85,2.5-.57.58-1.39.86-2.46.86s-1.89-.3-2.47-.91c-.59-.61-.88-1.48-.88-2.58v-13.87h-3.69c-.95,0-1.67-.25-2.16-.75-.48-.5-.73-1.24-.73-2.22s.26-1.73.76-2.25,1.23-.78,2.19-.78h13.95c.96,0,1.68.27,2.18.81.49.53.74,1.31.74,2.34,0,.93-.25,1.65-.74,2.13ZM40.92,73.46c0,1.54-.32,2.72-.96,3.56-.64.84-1.55,1.26-2.72,1.26s-2.12-.39-2.75-1.17c-.64-.79-.95-1.94-.95-3.48v-23.2c0-1.53.33-2.71.98-3.56.64-.84,1.55-1.27,2.72-1.27s2.12.41,2.74,1.2c.63.79.94,1.94.94,3.46v23.2ZM65.93,81.39c0,2.11-.36,3.7-1.07,4.78-.7,1.08-1.75,1.61-3.15,1.61-.2,0-.58.01-1.02-.19-.18-.07-.52-.24-.95-.71-.99-1.08-1.89-3.07-2.03-3.41l-6.06-16.12c-.36-.88-.69-1.86-.99-2.91-.3-1.05-.56-2.18-.79-3.4.09.75.14,1.51.17,2.33.04.81.06,1.75.06,2.83v12.64c0,1.83-.33,3.21-.96,4.13-.64.93-1.57,1.38-2.81,1.38s-2.14-.5-2.81-1.49c-.67-1-1.01-2.41-1.01-4.23v-26.82c0-1.94.4-3.47,1.18-4.56.78-1.1,1.86-1.65,3.25-1.65.98,0,1.84.35,2.57,1.03.71.69,1.38,1.77,1.97,3.24l5.11,12.76c.33.79.66,1.71.97,2.76.31,1.06.63,2.28.96,3.68-.07-.61-.12-1.28-.15-2-.04-.71-.06-1.76-.06-3.13v-12.62c0-1.79.34-3.19,1.01-4.2.67-1.01,1.61-1.52,2.79-1.52,1.25,0,2.2.47,2.85,1.41.65.92.97,2.3.97,4.11v30.27ZM90.09,80.83c-.77,3.31-1.92,5.97-3.45,7.98-1.04,1.39-2.26,2.37-3.66,2.95-1.39.59-3.75.88-7.09.88h-3.37c-1.8,0-3.05-.63-3.76-1.9-.72-1.28-1.07-3.51-1.07-6.72v-29.4c0-3.24.35-5.49,1.07-6.76.71-1.26,1.96-1.9,3.76-1.9h4.86c2.29,0,4.09.24,5.44.7,1.33.47,2.46,1.21,3.37,2.25,1.72,1.92,2.99,4.53,3.8,7.82.83,3.27,1.25,7.35,1.25,12.21s-.39,8.59-1.15,11.89ZM100.57,81.53c0,1.98-.34,3.51-1.02,4.62-.67,1.09-1.63,1.63-2.86,1.63s-2.23-.51-2.89-1.52c-.67-1.03-1-2.53-1-4.51v-30.07c0-1.98.35-3.52,1.03-4.61.68-1.1,1.63-1.65,2.86-1.65s2.23.52,2.89,1.55c.66,1.02.99,2.53.99,4.49v30.07ZM118.57,77.89c-1.7,1.96-4.17,2.93-7.41,2.93-2.73,0-4.92-.76-6.56-2.3-1.64-1.53-2.46-3.55-2.46-6.05,0-1.39.28-2.52.83-3.4.57-.88,1.28-1.31,2.16-1.31s1.82.75,2.81,2.28c.19.29.32.51.43.66.55.83,1.07,1.39,1.52,1.68.47.28,1.03.43,1.67.43.82,0,1.46-.23,1.93-.67.46-.45.7-1.08.7-1.87,0-1.17-1-2.2-3-3.06-.51-.23-.91-.42-1.2-.56-1.51-.7-2.69-1.31-3.56-1.86-.86-.54-1.49-1.06-1.89-1.54-.78-.97-1.37-2.04-1.75-3.23-.37-1.19-.56-2.56-.56-4.1,0-3.39.81-6.04,2.45-7.91,1.62-1.88,3.92-2.82,6.88-2.82,2.63,0,4.76.75,6.43,2.23,1.67,1.49,2.51,3.34,2.51,5.55,0,1.29-.26,2.29-.76,3.01-.51.73-1.21,1.09-2.11,1.09s-1.84-.66-2.82-1.99c-.25-.35-.46-.61-.6-.78-.43-.52-.87-.91-1.33-1.17-.47-.26-.93-.39-1.4-.39-.74,0-1.29.2-1.69.6-.4.39-.6.97-.6,1.72,0,1.15,1.02,2.2,3.07,3.13l.07.04c.18.08.42.18.73.33,2.88,1.31,4.73,2.42,5.52,3.33.9,1.03,1.54,2.13,1.94,3.3.4,1.17.6,2.57.6,4.19,0,3.72-.86,6.56-2.55,8.51ZM142.28,63.05c0,1.02-.27,1.8-.81,2.33-.54.53-1.34.8-2.38.8s-1.79-.28-2.36-.85c-.56-.57-.84-1.37-.84-2.39v-3.72h-5.97v6.83c0,1.03-.27,1.83-.83,2.4-.55.57-1.33.85-2.34.85s-1.84-.26-2.39-.79c-.54-.54-.81-1.32-.81-2.34v-17.14c0-1.03.28-1.82.85-2.39.55-.57,1.34-.86,2.35-.86s1.82.27,2.36.81c.54.53.81,1.31.81,2.33v4.44h5.97v-4.44c0-1.02.27-1.8.81-2.33.54-.54,1.33-.81,2.37-.81s1.81.29,2.37.87c.57.57.84,1.36.84,2.38v14.02ZM77.96,57.78h-2.26v23.04h2.16c1.94,0,3.32-.87,4.14-2.6.81-1.73,1.21-4.69,1.21-8.87s-.41-6.97-1.25-8.81-2.17-2.76-4-2.76ZM81.96,60.54c-.84-1.84-2.17-2.76-4-2.76h-2.26v23.04h2.16c1.94,0,3.32-.87,4.14-2.6.81-1.73,1.21-4.69,1.21-8.87s-.41-6.97-1.25-8.81ZM81.96,60.54c-.84-1.84-2.17-2.76-4-2.76h-2.26v23.04h2.16c1.94,0,3.32-.87,4.14-2.6.81-1.73,1.21-4.69,1.21-8.87s-.41-6.97-1.25-8.81Z"/>
    <path class="cls-1" d="M92.35,112.99l-30.23-.04c-.67,0-1.12-.77-.88-1.48l1.15-8.69c.14-.41.49-.69.88-.69l27.95.03c.39,0,.74.27.88.69l1.14,8.7c.24.71-.21,1.48-.88,1.48Z"/>
    <path class="cls-1" d="M164.05,15.08l-55.43,25.4c.97,1.15,1.95,2.3,2.92,3.45,2.41-.63,4.81-1.26,7.22-1.89,13.58-5.76,27.73-9.77,41.25-15.77,14.88-6.61,17.4-16.78,4.04-11.2ZM152.63,3.42c-15.08,12.18-30.2,24.83-45.28,36.57l4.11,3.5,43.56-31.71c10.74-9.85,7.93-15.97-2.39-8.36Z"/>
  </g>
</svg>