<?xml version="1.0" encoding="UTF-8"?>
<svg id="Layer_2" data-name="Layer 2" xmlns="http://www.w3.org/2000/svg" viewBox="0 0 130.14 47.45">
  <defs>
    <style>
      .cls-1 {
        fill: #fff;
      }
    </style>
  </defs>
  <g id="Layer_1-2" data-name="Layer 1">
    <g>
      <path class="cls-1" d="M108.98,24.19c0,3.72-.86,6.56-2.55,8.51-1.7,1.96-4.17,2.93-7.41,2.93-2.73,0-4.92-.76-6.56-2.3-1.64-1.53-2.46-3.55-2.46-6.05,0-1.39.28-2.52.83-3.4.57-.88,1.28-1.31,2.16-1.31s1.82.75,2.81,2.28c.19.29.32.51.43.66.55.83,1.07,1.39,1.52,1.68.47.28,1.03.43,1.67.43.82,0,1.46-.23,1.93-.67.46-.45.7-1.08.7-1.87,0-1.17-1-2.2-3-3.06-.51-.23-.91-.42-1.2-.56-1.51-.7-2.69-1.31-3.56-1.86-.86-.54-1.49-1.06-1.89-1.54-.78-.97-1.37-2.04-1.75-3.23-.37-1.19-.56-2.56-.56-4.1,0-3.39.81-6.04,2.45-7.91,1.62-1.88,3.92-2.82,6.88-2.82,2.63,0,4.76.75,6.43,2.23,1.67,1.49,2.51,3.34,2.51,5.55,0,1.29-.26,2.29-.76,3.01-.51.73-1.21,1.09-2.11,1.09s-1.84-.66-2.82-1.99c-.25-.35-.46-.61-.6-.78-.43-.52-.87-.91-1.33-1.17-.47-.26-.93-.39-1.4-.39-.74,0-1.29.2-1.69.6-.4.39-.6.97-.6,1.72,0,1.15,1.02,2.2,3.07,3.13l.07.04c.18.08.42.18.73.33,2.88,1.31,4.73,2.42,5.52,3.33.9,1.03,1.54,2.13,1.94,3.3.4,1.17.6,2.57.6,4.19Z"/>
      <path class="cls-1" d="M130.14,3.84v14.02c0,1.02-.27,1.8-.81,2.33-.54.53-1.34.8-2.38.8s-1.79-.28-2.36-.85c-.56-.57-.84-1.37-.84-2.39v-3.72h-5.97v6.83c0,1.03-.27,1.83-.83,2.4-.55.57-1.33.85-2.34.85s-1.84-.26-2.39-.79c-.54-.54-.81-1.32-.81-2.34V3.84c0-1.03.28-1.82.85-2.39.55-.57,1.34-.86,2.35-.86s1.82.27,2.36.81c.54.53.81,1.31.81,2.33v4.44h5.97V3.73c0-1.02.27-1.8.81-2.33.54-.54,1.33-.81,2.37-.81s1.81.29,2.37.87c.57.57.84,1.36.84,2.38Z"/>
      <path class="cls-1" d="M88.43,6.27v30.07c0,1.98-.34,3.51-1.02,4.62-.67,1.09-1.63,1.63-2.86,1.63s-2.23-.51-2.89-1.52c-.67-1.03-1-2.53-1-4.51V6.49c0-1.98.35-3.52,1.03-4.61.68-1.1,1.63-1.65,2.86-1.65s2.23.52,2.89,1.55c.66,1.02.99,2.53.99,4.49Z"/>
      <path class="cls-1" d="M77.85,11.54c-.81-3.29-2.08-5.9-3.8-7.82-.91-1.04-2.04-1.78-3.37-2.25-1.35-.46-3.15-.7-5.44-.7h-4.86c-1.8,0-3.05.64-3.76,1.9-.72,1.27-1.07,3.52-1.07,6.76v29.4c0,3.21.35,5.44,1.07,6.72.71,1.27,1.96,1.9,3.76,1.9h3.37c3.34,0,5.7-.29,7.09-.88,1.4-.58,2.62-1.56,3.66-2.95,1.53-2.01,2.68-4.67,3.45-7.98.76-3.3,1.15-7.26,1.15-11.89,0-4.86-.42-8.94-1.25-12.21ZM69.86,33.03c-.82,1.73-2.2,2.6-4.14,2.6h-2.16V12.59h2.26c1.83,0,3.16.92,4,2.76s1.25,4.77,1.25,8.81-.4,7.14-1.21,8.87Z"/>
      <path class="cls-1" d="M53.79,5.93v30.27c0,2.11-.36,3.7-1.07,4.78-.7,1.08-1.75,1.61-3.15,1.61-.2,0-.58.01-1.02-.19-.18-.07-.52-.24-.95-.71-.99-1.08-1.89-3.07-2.03-3.41l-6.06-16.12c-.36-.88-.69-1.86-.99-2.91-.3-1.05-.56-2.18-.79-3.4.09.75.14,1.51.17,2.33.04.81.06,1.75.06,2.83v12.64c0,1.83-.33,3.21-.96,4.13-.64.93-1.57,1.38-2.81,1.38s-2.14-.5-2.81-1.49c-.67-1-1.01-2.41-1.01-4.23V6.62c0-1.94.4-3.47,1.18-4.56.78-1.1,1.86-1.65,3.25-1.65.98,0,1.84.35,2.57,1.03.71.69,1.38,1.77,1.97,3.24l5.11,12.76c.33.79.66,1.71.97,2.76.31,1.06.63,2.28.96,3.68-.07-.61-.12-1.28-.15-2-.04-.71-.06-1.76-.06-3.13V6.13c0-1.79.34-3.19,1.01-4.2.67-1.01,1.61-1.52,2.79-1.52,1.25,0,2.2.47,2.85,1.41.65.92.97,2.3.97,4.11Z"/>
      <path class="cls-1" d="M28.78,5.07v23.2c0,1.54-.32,2.72-.96,3.56-.64.84-1.55,1.26-2.72,1.26s-2.12-.39-2.75-1.17c-.64-.79-.95-1.94-.95-3.48V5.24c0-1.53.33-2.71.98-3.56.64-.84,1.55-1.27,2.72-1.27s2.12.41,2.74,1.2c.63.79.94,1.94.94,3.46Z"/>
      <path class="cls-1" d="M19.82,3.9c0,.93-.25,1.65-.74,2.13-.5.48-1.21.72-2.15.72h-3.69v14c0,1.09-.28,1.93-.85,2.5-.57.58-1.39.86-2.46.86s-1.89-.3-2.47-.91c-.59-.61-.88-1.48-.88-2.58V6.75h-3.69c-.95,0-1.67-.25-2.16-.75-.48-.5-.73-1.24-.73-2.22s.26-1.73.76-2.25,1.23-.78,2.19-.78h13.95c.96,0,1.68.27,2.18.81.49.53.74,1.31.74,2.34Z"/>
    </g>
  </g>
</svg>